<svg width="38" height="38" viewBox="0 0 38 38" fill="none" xmlns="http://www.w3.org/2000/svg">
<circle cx="19" cy="19" r="19" fill="#AB259E"/>
<path d="M19.1339 27.176C17.9753 27.176 16.8533 27 15.7679 26.648C14.6973 26.2813 13.8539 25.812 13.2379 25.24L14.0519 23.524C14.6386 24.052 15.3866 24.4847 16.2959 24.822C17.2199 25.1447 18.1659 25.306 19.1339 25.306C20.4099 25.306 21.3633 25.0933 21.9939 24.668C22.6246 24.228 22.9399 23.6487 22.9399 22.93C22.9399 22.402 22.7639 21.9767 22.4119 21.654C22.0746 21.3167 21.6493 21.06 21.1359 20.884C20.6373 20.708 19.9259 20.51 19.0019 20.29C17.8433 20.0113 16.9046 19.7327 16.1859 19.454C15.4819 19.1753 14.8733 18.75 14.3599 18.178C13.8613 17.5913 13.6119 16.8067 13.6119 15.824C13.6119 15.0027 13.8246 14.262 14.2499 13.602C14.6899 12.942 15.3499 12.414 16.2299 12.018C17.1099 11.622 18.2026 11.424 19.5079 11.424C20.4173 11.424 21.3119 11.5413 22.1919 11.776C23.0719 12.0107 23.8273 12.348 24.4579 12.788L23.7319 14.548C23.0866 14.1373 22.3973 13.8293 21.6639 13.624C20.9306 13.404 20.2119 13.294 19.5079 13.294C18.2613 13.294 17.3226 13.5213 16.6919 13.976C16.0759 14.4307 15.7679 15.0173 15.7679 15.736C15.7679 16.264 15.9439 16.6967 16.2959 17.034C16.6479 17.3567 17.0806 17.6133 17.5939 17.804C18.1219 17.98 18.8333 18.1707 19.7279 18.376C20.8866 18.6547 21.8179 18.9333 22.5219 19.212C23.2259 19.4907 23.8273 19.916 24.3259 20.488C24.8393 21.06 25.0959 21.83 25.0959 22.798C25.0959 23.6047 24.8759 24.3453 24.4359 25.02C23.9959 25.68 23.3286 26.208 22.4339 26.604C21.5393 26.9853 20.4393 27.176 19.1339 27.176Z" fill="white"/>
</svg>
