<svg width="221" height="201" viewBox="0 0 221 201" fill="none" xmlns="http://www.w3.org/2000/svg">
<path d="M92.4318 58.362C92.4318 59.4702 92.2859 60.5397 91.993 61.5694C91.7115 62.5884 91.3063 63.5461 90.7773 64.4414C90.2483 65.326 89.6177 66.1376 88.8861 66.8771C88.1544 67.6048 87.338 68.2314 86.4378 68.7581C85.537 69.2842 84.5687 69.6927 83.5334 69.984C82.509 70.264 81.4396 70.4037 80.3249 70.4037H73.0303V46.32H80.3249C81.4396 46.32 82.509 46.4655 83.5334 46.7567C84.5687 47.0365 85.537 47.4396 86.4378 47.9659C87.338 48.4921 88.1544 49.1247 88.8861 49.8637C89.6177 50.5914 90.2483 51.4032 90.7773 52.2989C91.3063 53.1834 91.7115 54.141 91.993 55.1707C92.2859 56.1897 92.4318 57.2533 92.4318 58.362ZM87.586 58.362C87.586 57.3656 87.3947 56.4304 87.0116 55.5571C86.6404 54.6838 86.1222 53.9222 85.4581 53.273C84.8054 52.6124 84.0343 52.0918 83.1449 51.7111C82.2669 51.3304 81.3267 51.1401 80.3249 51.1401H77.9106V65.5835H80.3249C81.3267 65.5835 82.2669 65.3991 83.1449 65.0294C84.0343 64.6489 84.8054 64.1335 85.4581 63.4843C86.1222 62.8237 86.6404 62.0568 87.0116 61.1835C87.3947 60.2989 87.586 59.3584 87.586 58.362ZM112.256 70.4037H95.6571V46.32H112.256V51.1401H100.503V55.9602H108.457V60.7804H100.503V65.5835H112.256V70.4037ZM113.961 53.5417C113.961 52.5452 114.152 51.6103 114.536 50.737C114.918 49.8637 115.436 49.1023 116.089 48.4529C116.753 47.7923 117.524 47.2717 118.402 46.891C119.28 46.5103 120.221 46.32 121.222 46.32H132.333V51.1401H121.222C120.885 51.1401 120.569 51.2017 120.277 51.3248C119.984 51.448 119.725 51.6216 119.5 51.8455C119.286 52.0582 119.117 52.3101 118.993 52.6012C118.87 52.8924 118.808 53.2058 118.808 53.5417C118.808 53.8776 118.87 54.1969 118.993 54.4989C119.117 54.7902 119.286 55.0476 119.5 55.2717C119.725 55.4846 119.984 55.6522 120.277 55.7753C120.569 55.8984 120.885 55.9602 121.222 55.9602H126.068C127.07 55.9602 128.01 56.1504 128.888 56.5315C129.778 56.9007 130.549 57.4156 131.201 58.0761C131.866 58.7258 132.384 59.4927 132.755 60.3774C133.138 61.2507 133.329 62.1853 133.329 63.1817C133.329 64.1786 133.138 65.1132 132.755 65.9865C132.384 66.8599 131.866 67.6268 131.201 68.2873C130.549 68.937 129.778 69.4519 128.888 69.833C128.01 70.2135 127.07 70.4037 126.068 70.4037H115.312V65.5835H126.068C126.406 65.5835 126.721 65.5222 127.014 65.3991C127.307 65.2755 127.56 65.1078 127.774 64.895C127.999 64.6709 128.173 64.4135 128.298 64.1222C128.421 63.8314 128.483 63.5181 128.483 63.1817C128.483 62.8463 128.421 62.5325 128.298 62.2412C128.173 61.9504 127.999 61.6984 127.774 61.4855C127.56 61.262 127.307 61.0884 127.014 60.9653C126.721 60.8417 126.406 60.7804 126.068 60.7804H121.222C120.221 60.7804 119.28 60.5902 118.402 60.2091C117.524 59.8286 116.753 59.3138 116.089 58.664C115.436 58.0035 114.918 57.2366 114.536 56.3633C114.152 55.4787 113.961 54.5381 113.961 53.5417ZM141.367 70.4037H136.52V46.32H141.367V70.4037ZM165.142 67.9686C164.016 68.9204 162.761 69.6534 161.376 70.1683C159.992 70.6724 158.551 70.9245 157.053 70.9245C155.905 70.9245 154.796 70.7735 153.727 70.4709C152.669 70.1796 151.678 69.7652 150.755 69.2278C149.832 68.6796 148.988 68.0299 148.222 67.2801C147.457 66.5186 146.804 65.6786 146.264 64.7607C145.724 63.8314 145.301 62.835 144.997 61.7715C144.704 60.7073 144.558 59.6045 144.558 58.4625C144.558 57.3204 144.704 56.2235 144.997 55.1707C145.301 54.1184 145.724 53.1331 146.264 52.2149C146.804 51.2857 147.457 50.4459 148.222 49.6958C148.988 48.9344 149.832 48.285 150.755 47.7476C151.678 47.2101 152.669 46.7958 153.727 46.5047C154.796 46.2024 155.905 46.0513 157.053 46.0513C158.551 46.0513 159.992 46.3088 161.376 46.8238C162.761 47.3277 164.016 48.0555 165.142 49.0072L162.609 53.2058C161.877 52.4669 161.033 51.8903 160.076 51.476C159.119 51.0505 158.112 50.8378 157.053 50.8378C155.995 50.8378 154.999 51.0393 154.065 51.4424C153.142 51.8455 152.331 52.3941 151.633 53.0883C150.935 53.7712 150.384 54.5774 149.978 55.5066C149.573 56.4251 149.371 57.4102 149.371 58.4625C149.371 59.5261 149.573 60.523 149.978 61.4522C150.384 62.3814 150.935 63.193 151.633 63.8873C152.331 64.5817 153.142 65.1304 154.065 65.5335C154.999 65.9366 155.995 66.1376 157.053 66.1376C157.661 66.1376 158.252 66.065 158.827 65.9194C159.401 65.7737 159.946 65.5722 160.465 65.3148V58.4625H165.142V67.9686ZM188.241 70.4037H183.057L173.72 54.5494V70.4037H168.873V46.32H174.058L183.395 62.1912V46.32H188.241V70.4037Z" fill="#121213"/>
<path d="M29.2844 116.06C30.1202 116.06 30.9265 116.169 31.7033 116.388C32.4715 116.598 33.1934 116.9 33.8689 117.295C34.5359 117.689 35.148 118.159 35.7052 118.705C36.2539 119.252 36.7267 119.86 37.1236 120.532C37.5204 121.203 37.8285 121.926 38.0481 122.699C38.2591 123.463 38.3647 124.26 38.3647 125.092V130.533H20.2041V125.092C20.2041 124.26 20.3138 123.463 20.5334 122.699C20.7444 121.926 21.0484 121.203 21.4452 120.532C21.842 119.86 22.319 119.252 22.8762 118.705C23.4251 118.159 24.0372 117.689 24.7126 117.295C25.3795 116.9 26.1014 116.598 26.8782 116.388C27.6465 116.169 28.4485 116.06 29.2844 116.06ZM29.2844 119.676C28.533 119.676 27.828 119.818 27.1694 120.104C26.5109 120.381 25.9368 120.767 25.4471 121.263C24.949 121.75 24.5564 122.325 24.2694 122.988C23.9823 123.643 23.8388 124.344 23.8388 125.092V126.893H34.73V125.092C34.73 124.344 34.5907 123.643 34.3121 122.988C34.025 122.325 33.6367 121.75 33.147 121.263C32.6489 120.767 32.0706 120.381 31.412 120.104C30.745 119.818 30.0358 119.676 29.2844 119.676ZM38.3647 101.272V113.655H20.2041V101.272H23.8388V110.039H27.4734V104.107H31.108V110.039H34.73V101.272H38.3647ZM25.6497 100C24.8983 100 24.1933 99.8577 23.5348 99.5718C22.8762 99.2864 22.3021 98.9 21.8125 98.4131C21.3143 97.9176 20.9217 97.3425 20.6347 96.6874C20.3476 96.0323 20.2041 95.3315 20.2041 94.5839V86.2956H23.8388V94.5839C23.8388 94.8359 23.8852 95.0708 23.9781 95.2895C24.0709 95.5077 24.2018 95.7007 24.3707 95.8689C24.531 96.0285 24.721 96.1543 24.9405 96.2467C25.1601 96.3391 25.3965 96.3854 25.6497 96.3854C25.903 96.3854 26.1436 96.3391 26.3716 96.2467C26.5911 96.1543 26.7853 96.0285 26.9542 95.8689C27.1146 95.7007 27.2412 95.5077 27.3341 95.2895C27.427 95.0708 27.4734 94.8359 27.4734 94.5839V90.9691C27.4734 90.2215 27.6169 89.5202 27.904 88.8656C28.1826 88.2019 28.571 87.6268 29.0691 87.1399C29.5588 86.6444 30.1371 86.258 30.8041 85.9807C31.4627 85.6953 32.1676 85.5523 32.9191 85.5523C33.6705 85.5523 34.3754 85.6953 35.0339 85.9807C35.6925 86.258 36.2708 86.6444 36.769 87.1399C37.2586 87.6268 37.647 88.2019 37.9341 88.8656C38.2212 89.5202 38.3647 90.2215 38.3647 90.9691V98.9925H34.73V90.9691C34.73 90.7171 34.6836 90.4817 34.5907 90.2635C34.4978 90.0453 34.3712 89.8561 34.2108 89.6965C34.0419 89.5288 33.8477 89.3987 33.6283 89.3063C33.4087 89.2139 33.1723 89.1676 32.9191 89.1676C32.6657 89.1676 32.4293 89.2139 32.2099 89.3063C31.9903 89.3987 31.8004 89.5288 31.64 89.6965C31.4711 89.8561 31.3402 90.0453 31.2473 90.2635C31.1545 90.4817 31.108 90.7171 31.108 90.9691V94.5839C31.108 95.3315 30.9645 96.0323 30.6774 96.6874C30.3904 97.3425 30.002 97.9176 29.5124 98.4131C29.0142 98.9 28.4359 99.2864 27.7773 99.5718C27.1104 99.8577 26.4012 100 25.6497 100ZM38.3647 79.5567V83.172H20.2041V79.5567H38.3647ZM36.5284 61.8214C37.246 62.6614 37.799 63.5976 38.1874 64.6306C38.5673 65.6635 38.7573 66.7384 38.7573 67.8552C38.7573 68.7119 38.6433 69.539 38.4153 70.3365C38.1958 71.126 37.8834 71.865 37.4782 72.5534C37.0644 73.2419 36.5748 73.8718 36.0091 74.443C35.435 75.0138 34.8018 75.5007 34.1095 75.9038C33.4087 76.3069 32.6573 76.6218 31.8552 76.8486C31.0531 77.0668 30.2216 77.1764 29.3604 77.1764C28.4992 77.1764 27.6718 77.0668 26.8782 76.8486C26.0845 76.6218 25.3416 76.3069 24.6493 75.9038C23.9485 75.5007 23.3153 75.0138 22.7496 74.443C22.1755 73.8718 21.6858 73.2419 21.2806 72.5534C20.8753 71.865 20.5629 71.126 20.3434 70.3365C20.1155 69.539 20.0015 68.7119 20.0015 67.8552C20.0015 66.7384 20.1957 65.6635 20.584 64.6306C20.964 63.5976 21.5127 62.6614 22.2304 61.8214L25.3965 63.711C24.8392 64.2565 24.4044 64.8864 24.092 65.6001C23.7712 66.3144 23.6108 67.0657 23.6108 67.8552C23.6108 68.6447 23.7628 69.3874 24.0667 70.0845C24.3707 70.7729 24.7844 71.3775 25.3078 71.8983C25.8228 72.4191 26.4307 72.8307 27.1314 73.1328C27.8238 73.4354 28.5668 73.5864 29.3604 73.5864C30.1624 73.5864 30.9138 73.4354 31.6146 73.1328C32.3154 72.8307 32.9275 72.4191 33.4509 71.8983C33.9744 71.3775 34.3881 70.7729 34.692 70.0845C34.996 69.3874 35.148 68.6447 35.148 67.8552C35.148 67.4016 35.0931 66.9609 34.9833 66.5326C34.8736 66.1042 34.7216 65.6969 34.5274 65.3104H29.3604V61.8214H36.5284ZM38.3647 44.5901V48.4571L26.4096 55.4228H38.3647V59.0381H20.2041V55.1707L32.1719 48.2052H20.2041V44.5901H38.3647Z" fill="#121213"/>
<path d="M162.528 8.97323C162.528 9.63137 162.441 10.2662 162.267 10.8778C162.1 11.4828 161.859 12.0512 161.546 12.5831C161.231 13.1082 160.857 13.5902 160.423 14.029C159.988 14.4611 159.504 14.8334 158.969 15.1458C158.434 15.4583 157.859 15.7009 157.244 15.8738C156.636 16.04 156.001 16.1231 155.339 16.1231H151.008V1.82337H155.339C156.001 1.82337 156.636 1.9098 157.244 2.08264C157.859 2.24884 158.434 2.48817 158.969 2.80062C159.504 3.11307 159.988 3.48868 160.423 3.92744C160.857 4.35956 161.231 4.84153 161.546 5.37337C161.859 5.89858 162.1 6.46697 162.267 7.07857C162.441 7.6835 162.528 8.31509 162.528 8.97323ZM159.651 8.97323C159.651 8.38157 159.537 7.82646 159.31 7.30794C159.089 6.78937 158.782 6.33734 158.387 5.95173C158 5.55951 157.542 5.25038 157.014 5.02435C156.492 4.79832 155.934 4.68531 155.339 4.68531H153.906V13.2611H155.339C155.934 13.2611 156.492 13.1515 157.014 12.9321C157.542 12.706 158 12.4002 158.387 12.0147C158.782 11.6225 159.089 11.167 159.31 10.6485C159.537 10.1233 159.651 9.56489 159.651 8.97323ZM174.298 16.1231H164.443V1.82337H174.298V4.68531H167.32V7.54726H172.043V10.4092H167.32V13.2611H174.298V16.1231ZM175.311 6.11129C175.311 5.51963 175.425 4.96452 175.652 4.44598C175.879 3.92744 176.187 3.47538 176.574 3.0898C176.969 2.69758 177.426 2.38844 177.948 2.16242C178.469 1.93638 179.027 1.82337 179.622 1.82337H186.219V4.68531H179.622C179.422 4.68531 179.234 4.72187 179.061 4.795C178.887 4.86812 178.733 4.97117 178.599 5.10413C178.472 5.23044 178.372 5.38001 178.299 5.55285C178.225 5.72568 178.189 5.91185 178.189 6.11129C178.189 6.31073 178.225 6.50018 178.299 6.67968C178.372 6.85252 178.472 7.00542 178.599 7.13838C178.733 7.26473 178.887 7.36443 179.061 7.43757C179.234 7.51066 179.422 7.54726 179.622 7.54726H182.499C183.094 7.54726 183.653 7.66028 184.174 7.88627C184.702 8.10565 185.16 8.41145 185.548 8.80373C185.941 9.18928 186.249 9.64465 186.47 10.1699C186.697 10.6884 186.811 11.2435 186.811 11.8352C186.811 12.4268 186.697 12.9819 186.47 13.5005C186.249 14.019 185.941 14.4744 185.548 14.8666C185.16 15.2522 184.702 15.558 184.174 15.784C183.653 16.0101 183.094 16.1231 182.499 16.1231H176.113V13.2611H182.499C182.7 13.2611 182.887 13.2246 183.061 13.1515C183.235 13.0783 183.385 12.9786 183.512 12.8523C183.646 12.7194 183.749 12.5665 183.823 12.3936C183.896 12.2207 183.933 12.0346 183.933 11.8352C183.933 11.6357 183.896 11.4496 183.823 11.2767C183.749 11.1039 183.646 10.9543 183.512 10.828C183.385 10.6951 183.235 10.592 183.061 10.5189C182.887 10.4457 182.7 10.4092 182.499 10.4092H179.622C179.027 10.4092 178.469 10.2962 177.948 10.0701C177.426 9.84409 176.969 9.53829 176.574 9.15274C176.187 8.76052 175.879 8.3051 175.652 7.78658C175.425 7.2614 175.311 6.70295 175.311 6.11129ZM191.583 16.1231H188.705V1.82337H191.583V16.1231ZM205.7 14.6772C205.031 15.2422 204.286 15.6777 203.464 15.9835C202.641 16.2826 201.786 16.4322 200.897 16.4322C200.215 16.4322 199.557 16.3425 198.922 16.163C198.294 15.9901 197.705 15.7441 197.157 15.4251C196.609 15.0993 196.108 14.7137 195.654 14.2683C195.199 13.8163 194.811 13.3176 194.49 12.7725C194.17 12.2207 193.919 11.6291 193.739 10.9975C193.565 10.366 193.478 9.71113 193.478 9.03305C193.478 8.35497 193.565 7.70349 193.739 7.07857C193.919 6.45364 194.17 5.86864 194.49 5.32351C194.811 4.77173 195.199 4.27314 195.654 3.82772C196.108 3.37566 196.609 2.99009 197.157 2.67098C197.705 2.35188 198.294 2.10591 198.922 1.93306C199.557 1.75357 200.215 1.66382 200.897 1.66382C201.786 1.66382 202.641 1.81672 203.464 2.12253C204.286 2.42169 205.031 2.8538 205.7 3.41888L204.195 5.91185C203.761 5.47309 203.26 5.13072 202.692 4.88475C202.124 4.63213 201.525 4.50581 200.897 4.50581C200.269 4.50581 199.677 4.62548 199.123 4.8648C198.574 5.10413 198.093 5.42988 197.679 5.84204C197.264 6.24759 196.937 6.72622 196.696 7.27801C196.455 7.82313 196.335 8.40817 196.335 9.03305C196.335 9.66459 196.455 10.2563 196.696 10.8081C196.937 11.3598 197.264 11.8418 197.679 12.254C198.093 12.6662 198.574 12.9919 199.123 13.2312C199.677 13.4706 200.269 13.5902 200.897 13.5902C201.258 13.5902 201.609 13.547 201.95 13.4606C202.291 13.3742 202.615 13.2545 202.922 13.1016V9.03305H205.7V14.6772ZM219.415 16.1231H216.337L210.792 6.70962V16.1231H207.915V1.82337H210.993L216.537 11.2468V1.82337H219.415V16.1231Z" fill="#121213"/>
<path d="M92.4318 186.271C92.4318 187.379 92.2859 188.449 91.993 189.479C91.7115 190.498 91.3063 191.455 90.7773 192.351C90.2483 193.235 89.6177 194.047 88.8861 194.786C88.1544 195.514 87.338 196.141 86.4378 196.667C85.537 197.193 84.5687 197.602 83.5334 197.893C82.509 198.173 81.4396 198.313 80.3249 198.313H73.0303V174.229H80.3249C81.4396 174.229 82.509 174.375 83.5334 174.666C84.5687 174.946 85.537 175.349 86.4378 175.875C87.338 176.401 88.1544 177.034 88.8861 177.773C89.6177 178.5 90.2483 179.312 90.7773 180.208C91.3063 181.092 91.7115 182.05 91.993 183.08C92.2859 184.099 92.4318 185.162 92.4318 186.271ZM87.586 186.271C87.586 185.275 87.3947 184.34 87.0116 183.466C86.6404 182.593 86.1222 181.831 85.4581 181.182C84.8054 180.522 84.0343 180.001 83.1449 179.62C82.2669 179.239 81.3267 179.049 80.3249 179.049H77.9106V193.493H80.3249C81.3267 193.493 82.2669 193.308 83.1449 192.939C84.0343 192.558 84.8054 192.043 85.4581 191.393C86.1222 190.733 86.6404 189.966 87.0116 189.093C87.3947 188.208 87.586 187.268 87.586 186.271ZM112.256 198.313H95.6571V174.229H112.256V179.049H100.503V183.869H108.457V188.69H100.503V193.493H112.256V198.313ZM113.961 181.451C113.961 180.455 114.152 179.519 114.536 178.646C114.918 177.773 115.436 177.012 116.089 176.362C116.753 175.701 117.524 175.181 118.402 174.8C119.28 174.42 120.221 174.229 121.222 174.229H132.333V179.049H121.222C120.885 179.049 120.569 179.111 120.277 179.234C119.984 179.357 119.725 179.531 119.5 179.755C119.286 179.968 119.117 180.219 118.993 180.51C118.87 180.802 118.808 181.115 118.808 181.451C118.808 181.787 118.87 182.106 118.993 182.408C119.117 182.699 119.286 182.957 119.5 183.181C119.725 183.394 119.984 183.561 120.277 183.684C120.569 183.808 120.885 183.869 121.222 183.869H126.068C127.07 183.869 128.01 184.06 128.888 184.441C129.778 184.81 130.549 185.325 131.201 185.985C131.866 186.635 132.384 187.402 132.755 188.287C133.138 189.16 133.329 190.094 133.329 191.091C133.329 192.088 133.138 193.022 132.755 193.896C132.384 194.769 131.866 195.536 131.201 196.196C130.549 196.846 129.778 197.361 128.888 197.742C128.01 198.123 127.07 198.313 126.068 198.313H115.312V193.493H126.068C126.406 193.493 126.721 193.431 127.014 193.308C127.307 193.185 127.56 193.017 127.774 192.804C127.999 192.58 128.173 192.323 128.298 192.031C128.421 191.741 128.483 191.427 128.483 191.091C128.483 190.756 128.421 190.442 128.298 190.15C128.173 189.86 127.999 189.608 127.774 189.395C127.56 189.171 127.307 188.998 127.014 188.874C126.721 188.751 126.406 188.69 126.068 188.69H121.222C120.221 188.69 119.28 188.499 118.402 188.118C117.524 187.738 116.753 187.223 116.089 186.573C115.436 185.913 114.918 185.146 114.536 184.272C114.152 183.388 113.961 182.447 113.961 181.451ZM141.367 198.313H136.52V174.229H141.367V198.313ZM165.142 195.878C164.016 196.83 162.761 197.563 161.376 198.078C159.992 198.582 158.551 198.834 157.053 198.834C155.905 198.834 154.796 198.683 153.727 198.38C152.669 198.089 151.678 197.674 150.755 197.137C149.832 196.589 148.988 195.939 148.222 195.189C147.457 194.428 146.804 193.588 146.264 192.67C145.724 191.741 145.301 190.744 144.997 189.681C144.704 188.617 144.558 187.514 144.558 186.372C144.558 185.23 144.704 184.133 144.997 183.08C145.301 182.028 145.724 181.042 146.264 180.124C146.804 179.195 147.457 178.355 148.222 177.605C148.988 176.843 149.832 176.194 150.755 175.657C151.678 175.119 152.669 174.705 153.727 174.414C154.796 174.112 155.905 173.961 157.053 173.961C158.551 173.961 159.992 174.218 161.376 174.733C162.761 175.237 164.016 175.965 165.142 176.917L162.609 181.115C161.877 180.376 161.033 179.799 160.076 179.385C159.119 178.96 158.112 178.747 157.053 178.747C155.995 178.747 154.999 178.949 154.065 179.352C153.142 179.755 152.331 180.303 151.633 180.997C150.935 181.68 150.384 182.487 149.978 183.416C149.573 184.334 149.371 185.319 149.371 186.372C149.371 187.435 149.573 188.432 149.978 189.361C150.384 190.291 150.935 191.102 151.633 191.797C152.331 192.491 153.142 193.04 154.065 193.443C154.999 193.846 155.995 194.047 157.053 194.047C157.661 194.047 158.252 193.974 158.827 193.829C159.401 193.683 159.946 193.481 160.465 193.224V186.372H165.142V195.878ZM188.241 198.313H183.057L173.72 182.459V198.313H168.873V174.229H174.058L183.395 190.1V174.229H188.241V198.313Z" fill="#121213"/>
<path d="M103.864 123.334V120.774C103.864 120.423 103.795 120.092 103.658 119.783C103.526 119.468 103.344 119.194 103.111 118.962C102.878 118.73 102.602 118.549 102.286 118.418C101.974 118.281 101.643 118.213 101.29 118.213C100.937 118.213 100.602 118.281 100.285 118.418C99.974 118.549 99.7022 118.73 99.4687 118.962C99.2353 119.194 99.05 119.468 98.9127 119.783C98.7809 120.092 98.715 120.423 98.715 120.774V123.334H103.864ZM106.439 128.446H103.864V125.886H98.715V128.446H96.1494V120.774C96.1494 120.066 96.284 119.403 96.553 118.784C96.8227 118.159 97.1874 117.615 97.6478 117.151C98.1141 116.687 98.6582 116.321 99.2802 116.053C99.908 115.786 100.578 115.652 101.29 115.652C102.001 115.652 102.668 115.786 103.29 116.053C103.918 116.321 104.465 116.687 104.932 117.151C105.398 117.615 105.766 118.159 106.035 118.784C106.304 119.403 106.439 120.066 106.439 120.774V128.446ZM118.908 127.153C118.31 127.659 117.643 128.048 116.907 128.322C116.172 128.589 115.406 128.723 114.611 128.723C114.001 128.723 113.412 128.643 112.844 128.482C112.282 128.328 111.756 128.107 111.265 127.822C110.774 127.531 110.326 127.186 109.919 126.787C109.513 126.383 109.166 125.936 108.879 125.449C108.592 124.955 108.368 124.425 108.206 123.861C108.05 123.295 107.973 122.709 107.973 122.103C107.973 121.496 108.05 120.913 108.206 120.354C108.368 119.795 108.592 119.271 108.879 118.784C109.166 118.29 109.513 117.844 109.919 117.445C110.326 117.041 110.774 116.696 111.265 116.41C111.756 116.125 112.282 115.905 112.844 115.75C113.412 115.589 114.001 115.509 114.611 115.509C115.406 115.509 116.172 115.646 116.907 115.919C117.643 116.187 118.31 116.574 118.908 117.08L117.562 119.31C117.174 118.918 116.725 118.611 116.217 118.391C115.708 118.165 115.173 118.052 114.611 118.052C114.049 118.052 113.52 118.159 113.023 118.373C112.533 118.587 112.102 118.879 111.731 119.248C111.361 119.611 111.068 120.039 110.852 120.532C110.637 121.02 110.53 121.544 110.53 122.103C110.53 122.668 110.637 123.197 110.852 123.691C111.068 124.185 111.361 124.616 111.731 124.985C112.102 125.354 112.533 125.645 113.023 125.859C113.52 126.073 114.049 126.18 114.611 126.18C114.934 126.18 115.248 126.141 115.553 126.064C115.858 125.987 116.148 125.88 116.423 125.743V122.103H118.908V127.153ZM129.708 128.446H120.89V115.652H129.708V118.213H123.465V120.774H127.69V123.334H123.465V125.886H129.708V128.446ZM154.467 127.135C153.869 127.646 153.199 128.039 152.457 128.313C151.716 128.586 150.948 128.723 150.152 128.723C149.542 128.723 148.953 128.643 148.385 128.482C147.823 128.328 147.293 128.107 146.797 127.822C146.307 127.531 145.858 127.182 145.452 126.778C145.045 126.374 144.695 125.928 144.402 125.44C144.115 124.946 143.891 124.42 143.729 123.861C143.574 123.295 143.496 122.709 143.496 122.103C143.496 121.496 143.574 120.91 143.729 120.345C143.891 119.78 144.115 119.254 144.402 118.766C144.695 118.272 145.045 117.823 145.452 117.418C145.858 117.014 146.307 116.669 146.797 116.384C147.293 116.092 147.823 115.869 148.385 115.715C148.953 115.554 149.542 115.473 150.152 115.473C150.948 115.473 151.716 115.61 152.457 115.884C153.199 116.152 153.869 116.544 154.467 117.062L153.104 119.292C152.727 118.888 152.281 118.579 151.767 118.364C151.252 118.144 150.714 118.034 150.152 118.034C149.584 118.034 149.052 118.141 148.556 118.356C148.059 118.57 147.626 118.861 147.254 119.23C146.884 119.593 146.591 120.024 146.376 120.524C146.16 121.017 146.053 121.544 146.053 122.103C146.053 122.662 146.16 123.188 146.376 123.682C146.591 124.17 146.884 124.598 147.254 124.967C147.626 125.336 148.059 125.627 148.556 125.841C149.052 126.055 149.584 126.162 150.152 126.162C150.714 126.162 151.252 126.055 151.767 125.841C152.281 125.621 152.727 125.309 153.104 124.904L154.467 127.135ZM161.751 128.446H159.186V124.44C158.617 124.298 158.094 124.069 157.616 123.754C157.143 123.438 156.736 123.064 156.395 122.629C156.055 122.189 155.789 121.704 155.597 121.175C155.412 120.64 155.319 120.078 155.319 119.489V115.652H157.894V119.489C157.894 119.84 157.96 120.173 158.091 120.488C158.229 120.797 158.414 121.068 158.647 121.3C158.88 121.532 159.153 121.716 159.463 121.853C159.781 121.984 160.116 122.049 160.469 122.049C160.821 122.049 161.153 121.984 161.464 121.853C161.781 121.716 162.056 121.532 162.289 121.3C162.522 121.068 162.705 120.797 162.836 120.488C162.974 120.173 163.043 119.84 163.043 119.489V115.652H165.608V119.489C165.608 120.078 165.513 120.64 165.321 121.175C165.136 121.704 164.873 122.189 164.532 122.629C164.191 123.064 163.785 123.438 163.312 123.754C162.84 124.069 162.319 124.298 161.751 124.44V128.446Z" fill="white"/>
<path d="M141.801 128.447H139.047L134.086 120.024V128.447H131.512V115.652H134.265L139.226 124.084V115.652H141.801V128.447Z" fill="#00C2FF"/>
<g filter="url(#filter0_f)">
<path d="M103.864 123.334V120.774C103.864 120.423 103.795 120.092 103.658 119.783C103.526 119.468 103.344 119.194 103.111 118.962C102.878 118.73 102.602 118.549 102.286 118.418C101.974 118.281 101.643 118.213 101.29 118.213C100.937 118.213 100.602 118.281 100.285 118.418C99.974 118.549 99.7022 118.73 99.4687 118.962C99.2353 119.194 99.05 119.468 98.9127 119.783C98.7809 120.092 98.715 120.423 98.715 120.774V123.334H103.864ZM106.439 128.446H103.864V125.886H98.715V128.446H96.1494V120.774C96.1494 120.066 96.284 119.403 96.553 118.784C96.8227 118.159 97.1874 117.615 97.6478 117.151C98.1141 116.687 98.6582 116.321 99.2802 116.053C99.908 115.786 100.578 115.652 101.29 115.652C102.001 115.652 102.668 115.786 103.29 116.053C103.918 116.321 104.465 116.687 104.932 117.151C105.398 117.615 105.766 118.159 106.035 118.784C106.304 119.403 106.439 120.066 106.439 120.774V128.446ZM118.908 127.153C118.31 127.659 117.643 128.048 116.907 128.322C116.172 128.589 115.406 128.723 114.611 128.723C114.001 128.723 113.412 128.643 112.844 128.482C112.282 128.328 111.756 128.107 111.265 127.822C110.774 127.531 110.326 127.186 109.919 126.787C109.513 126.383 109.166 125.936 108.879 125.449C108.592 124.955 108.368 124.425 108.206 123.861C108.05 123.295 107.973 122.709 107.973 122.103C107.973 121.496 108.05 120.913 108.206 120.354C108.368 119.795 108.592 119.271 108.879 118.784C109.166 118.29 109.513 117.844 109.919 117.445C110.326 117.041 110.774 116.696 111.265 116.41C111.756 116.125 112.282 115.905 112.844 115.75C113.412 115.589 114.001 115.509 114.611 115.509C115.406 115.509 116.172 115.646 116.907 115.919C117.643 116.187 118.31 116.574 118.908 117.08L117.562 119.31C117.174 118.918 116.725 118.611 116.217 118.391C115.708 118.165 115.173 118.052 114.611 118.052C114.049 118.052 113.52 118.159 113.023 118.373C112.533 118.587 112.102 118.879 111.731 119.248C111.361 119.611 111.068 120.039 110.852 120.532C110.637 121.02 110.53 121.544 110.53 122.103C110.53 122.668 110.637 123.197 110.852 123.691C111.068 124.185 111.361 124.616 111.731 124.985C112.102 125.354 112.533 125.645 113.023 125.859C113.52 126.073 114.049 126.18 114.611 126.18C114.934 126.18 115.248 126.141 115.553 126.064C115.858 125.987 116.148 125.88 116.423 125.743V122.103H118.908V127.153ZM129.708 128.446H120.89V115.652H129.708V118.213H123.465V120.774H127.69V123.334H123.465V125.886H129.708V128.446ZM154.467 127.135C153.869 127.646 153.199 128.039 152.457 128.313C151.716 128.586 150.948 128.723 150.152 128.723C149.542 128.723 148.953 128.643 148.385 128.482C147.823 128.328 147.293 128.107 146.797 127.822C146.307 127.531 145.858 127.182 145.452 126.778C145.045 126.374 144.695 125.928 144.402 125.44C144.115 124.946 143.891 124.42 143.729 123.861C143.574 123.295 143.496 122.709 143.496 122.103C143.496 121.496 143.574 120.91 143.729 120.345C143.891 119.78 144.115 119.254 144.402 118.766C144.695 118.272 145.045 117.823 145.452 117.418C145.858 117.014 146.307 116.669 146.797 116.384C147.293 116.092 147.823 115.869 148.385 115.715C148.953 115.554 149.542 115.473 150.152 115.473C150.948 115.473 151.716 115.61 152.457 115.884C153.199 116.152 153.869 116.544 154.467 117.062L153.104 119.292C152.727 118.888 152.281 118.579 151.767 118.364C151.252 118.144 150.714 118.034 150.152 118.034C149.584 118.034 149.052 118.141 148.556 118.356C148.059 118.57 147.626 118.861 147.254 119.23C146.884 119.593 146.591 120.024 146.376 120.524C146.16 121.017 146.053 121.544 146.053 122.103C146.053 122.662 146.16 123.188 146.376 123.682C146.591 124.17 146.884 124.598 147.254 124.967C147.626 125.336 148.059 125.627 148.556 125.841C149.052 126.055 149.584 126.162 150.152 126.162C150.714 126.162 151.252 126.055 151.767 125.841C152.281 125.621 152.727 125.309 153.104 124.904L154.467 127.135ZM161.751 128.446H159.186V124.44C158.617 124.298 158.094 124.069 157.616 123.754C157.143 123.438 156.736 123.064 156.395 122.629C156.055 122.189 155.789 121.704 155.597 121.175C155.412 120.64 155.319 120.078 155.319 119.489V115.652H157.894V119.489C157.894 119.84 157.96 120.173 158.091 120.488C158.229 120.797 158.414 121.068 158.647 121.3C158.88 121.532 159.153 121.716 159.463 121.853C159.781 121.984 160.116 122.049 160.469 122.049C160.821 122.049 161.153 121.984 161.464 121.853C161.781 121.716 162.056 121.532 162.289 121.3C162.522 121.068 162.705 120.797 162.836 120.488C162.974 120.173 163.043 119.84 163.043 119.489V115.652H165.608V119.489C165.608 120.078 165.513 120.64 165.321 121.175C165.136 121.704 164.873 122.189 164.532 122.629C164.191 123.064 163.785 123.438 163.312 123.754C162.84 124.069 162.319 124.298 161.751 124.44V128.446Z" fill="white"/>
<path d="M141.801 128.447H139.047L134.086 120.025V128.447H131.512V115.653H134.265L139.226 124.085V115.653H141.801V128.447Z" fill="#00C2FF"/>
</g>
<path d="M195.925 67.1453C194.957 66.0258 194.214 64.7719 193.696 63.3832C193.178 61.995 192.919 60.5563 192.919 59.0671C192.919 57.925 193.071 56.8222 193.375 55.7587C193.668 54.7064 194.084 53.7153 194.624 52.786C195.176 51.8679 195.835 51.0281 196.6 50.2667C197.365 49.5054 198.21 48.8504 199.133 48.3018C200.067 47.7643 201.064 47.3444 202.122 47.0421C203.191 46.7511 204.3 46.6055 205.448 46.6055C206.597 46.6055 207.705 46.7511 208.775 47.0421C209.844 47.3444 210.84 47.7643 211.763 48.3018C212.698 48.8504 213.548 49.5054 214.313 50.2667C215.079 51.0281 215.732 51.8679 216.272 52.786C216.824 53.7153 217.246 54.7064 217.539 55.7587C217.842 56.8222 217.994 57.925 217.994 59.0671C217.994 60.5563 217.735 61.995 217.218 63.3832C216.711 64.7719 215.968 66.0258 214.989 67.1453L210.767 64.5924C211.533 63.8873 212.118 63.0532 212.523 62.0902C212.94 61.1276 213.148 60.1199 213.148 59.0671C213.148 58.0035 212.946 57.0071 212.54 56.0779C212.135 55.1487 211.583 54.3366 210.885 53.6425C210.199 52.9483 209.383 52.3997 208.437 51.9966C207.503 51.5936 206.506 51.392 205.448 51.392C204.39 51.392 203.394 51.5936 202.459 51.9966C201.536 52.3997 200.726 52.9483 200.028 53.6425C199.33 54.3366 198.778 55.1487 198.373 56.0779C197.968 57.0071 197.765 58.0035 197.765 59.0671C197.765 60.1199 197.968 61.1276 198.373 62.0902C198.79 63.0532 199.381 63.8873 200.146 64.5924L195.925 67.1453ZM205.448 92.8416C204.3 92.8416 203.191 92.6905 202.122 92.388C201.064 92.0972 200.067 91.6828 199.133 91.1454C198.21 90.608 197.365 89.9582 196.6 89.1972C195.835 88.4357 195.176 87.5962 194.624 86.6777C194.084 85.7598 193.668 84.7688 193.375 83.7052C193.071 82.6416 192.919 81.5388 192.919 80.3967C192.919 79.2547 193.071 78.1519 193.375 77.0878C193.668 76.0355 194.084 75.0445 194.624 74.1152C195.176 73.1973 195.835 72.3573 196.6 71.5963C197.365 70.8347 198.21 70.1796 199.133 69.6309C200.067 69.0935 201.064 68.6737 202.122 68.3717C203.191 68.0804 204.3 67.9347 205.448 67.9347C206.597 67.9347 207.705 68.0804 208.775 68.3717C209.844 68.6737 210.84 69.0935 211.763 69.6309C212.687 70.1796 213.531 70.8347 214.296 71.5963C215.062 72.3573 215.715 73.1973 216.255 74.1152C216.796 75.0445 217.212 76.0355 217.504 77.0878C217.809 78.1519 217.961 79.2547 217.961 80.3967C217.961 81.5388 217.809 82.6416 217.504 83.7052C217.212 84.7688 216.796 85.7598 216.255 86.6777C215.715 87.5962 215.062 88.4357 214.296 89.1972C213.531 89.9582 212.687 90.608 211.763 91.1454C210.84 91.6828 209.844 92.0972 208.775 92.388C207.705 92.6905 206.597 92.8416 205.448 92.8416ZM205.448 88.0552C206.506 88.0552 207.503 87.8536 208.437 87.4506C209.383 87.0475 210.199 86.4988 210.885 85.8044C211.583 85.1213 212.135 84.3098 212.54 83.3693C212.946 82.4401 213.148 81.449 213.148 80.3967C213.148 79.3332 212.946 78.3362 212.54 77.407C212.135 76.4778 211.583 75.6663 210.885 74.9719C210.199 74.2775 209.383 73.7288 208.437 73.3257C207.503 72.9227 206.506 72.7211 205.448 72.7211C204.39 72.7211 203.394 72.9227 202.459 73.3257C201.536 73.7288 200.726 74.2775 200.028 74.9719C199.33 75.6663 198.778 76.4778 198.373 77.407C197.968 78.3362 197.765 79.3332 197.765 80.3967C197.765 81.449 197.968 82.4401 198.373 83.3693C198.778 84.3098 199.33 85.1213 200.028 85.8044C200.726 86.4988 201.536 87.0475 202.459 87.4506C203.394 87.8536 204.39 88.0552 205.448 88.0552ZM193.443 115.279V110.123L209.383 100.836H193.443V96.0156H217.656V101.172L201.699 110.459H217.656V115.279H193.443ZM193.443 129.874V125.071H212.811V117.832H217.656V137.096H212.811V129.874H193.443ZM193.443 156.158V139.649H217.656V156.158H212.811V144.468H207.964V152.379H203.118V144.468H198.289V156.158H193.443ZM193.443 178.797V173.641L209.383 164.354H193.443V159.534H217.656V164.689L201.699 173.977H217.656V178.797H193.443ZM193.443 193.392V188.589H212.811V181.35H217.656V200.614H212.811V193.392H193.443Z" fill="#121213"/>
<path d="M45.7098 64.4582C44.7417 63.3388 43.9987 62.0849 43.4808 60.6962C42.963 59.308 42.7041 57.8693 42.7041 56.3801C42.7041 55.238 42.8561 54.1352 43.16 53.0716C43.4527 52.0192 43.8692 51.0283 44.4096 50.0989C44.9612 49.1808 45.6197 48.3411 46.3852 47.5797C47.1507 46.8184 47.995 46.1634 48.918 45.6148C49.8524 45.0773 50.8487 44.6574 51.9068 44.3551C52.9763 44.064 54.0852 43.9185 55.2335 43.9185C56.3817 43.9185 57.4905 44.064 58.5598 44.3551C59.6291 44.6574 60.6255 45.0773 61.5484 45.6148C62.4827 46.1634 63.3326 46.8184 64.0983 47.5797C64.864 48.3411 65.5167 49.1808 66.0571 50.0989C66.6087 51.0283 67.0308 52.0192 67.3236 53.0716C67.6273 54.1352 67.7791 55.238 67.7791 56.3801C67.7791 57.8693 67.5203 59.308 67.0027 60.6962C66.4958 62.0849 65.7528 63.3388 64.7737 64.4582L60.552 61.9054C61.3177 61.2003 61.9029 60.3662 62.3082 59.4031C62.7248 58.4406 62.9333 57.4329 62.9333 56.3801C62.9333 55.3165 62.7307 54.3201 62.3255 53.3907C61.9202 52.4614 61.3685 51.6497 60.6704 50.9555C59.9836 50.2613 59.1677 49.7127 58.2221 49.3096C57.2878 48.9065 56.2914 48.705 55.2335 48.705C54.1749 48.705 53.1789 48.9065 52.2446 49.3096C51.3215 49.7127 50.511 50.2613 49.813 50.9555C49.1151 51.6497 48.5635 52.4614 48.1582 53.3907C47.753 54.3201 47.5503 55.3165 47.5503 56.3801C47.5503 57.4329 47.753 58.4406 48.1582 59.4031C48.5747 60.3662 49.1657 61.2003 49.9312 61.9054L45.7098 64.4582ZM55.2335 90.1545C54.0852 90.1545 52.9763 90.0035 51.9068 89.7009C50.8487 89.4102 49.8524 88.9958 48.918 88.4584C47.995 87.921 47.1507 87.2712 46.3852 86.5102C45.6197 85.7487 44.9612 84.9092 44.4096 83.9907C43.8692 83.0728 43.4527 82.0818 43.16 81.0182C42.8561 79.9546 42.7041 78.8518 42.7041 77.7097C42.7041 76.5677 42.8561 75.4649 43.16 74.4008C43.4527 73.3485 43.8692 72.3574 44.4096 71.4282C44.9612 70.5103 45.6197 69.6703 46.3852 68.9093C47.1507 68.1477 47.995 67.4926 48.918 66.9439C49.8524 66.4064 50.8487 65.9867 51.9068 65.6847C52.9763 65.3934 54.0852 65.2477 55.2335 65.2477C56.3817 65.2477 57.4905 65.3934 58.5598 65.6847C59.6291 65.9867 60.6255 66.4064 61.5484 66.9439C62.4719 67.4926 63.3159 68.1477 64.0816 68.9093C64.8467 69.6703 65.5 70.5103 66.0403 71.4282C66.5806 72.3574 66.9973 73.3485 67.2896 74.4008C67.5938 75.4649 67.7456 76.5677 67.7456 77.7097C67.7456 78.8518 67.5938 79.9546 67.2896 81.0182C66.9973 82.0818 66.5806 83.0728 66.0403 83.9907C65.5 84.9092 64.8467 85.7487 64.0816 86.5102C63.3159 87.2712 62.4719 87.921 61.5484 88.4584C60.6255 88.9958 59.6291 89.4102 58.5598 89.7009C57.4905 90.0035 56.3817 90.1545 55.2335 90.1545ZM55.2335 85.3682C56.2914 85.3682 57.2878 85.1666 58.2221 84.7635C59.1677 84.3605 59.9836 83.8118 60.6704 83.1174C61.3685 82.4343 61.9202 81.6228 62.3255 80.6823C62.7307 79.7531 62.9333 78.762 62.9333 77.7097C62.9333 76.6461 62.7307 75.6492 62.3255 74.72C61.9202 73.7908 61.3685 72.9792 60.6704 72.2849C59.9836 71.5905 59.1677 71.0418 58.2221 70.6387C57.2878 70.2356 56.2914 70.0341 55.2335 70.0341C54.1749 70.0341 53.1789 70.2356 52.2446 70.6387C51.3215 71.0418 50.511 71.5905 49.813 72.2849C49.1151 72.9792 48.5635 73.7908 48.1582 74.72C47.753 75.6492 47.5503 76.6461 47.5503 77.7097C47.5503 78.762 47.753 79.7531 48.1582 80.6823C48.5635 81.6228 49.1151 82.4343 49.813 83.1174C50.511 83.8118 51.3215 84.3605 52.2446 84.7635C53.1789 85.1666 54.1749 85.3682 55.2335 85.3682ZM43.2276 112.592V107.436L59.1677 98.1489H43.2276V93.3286H67.4414V98.4848L51.4847 107.772H67.4414V112.592H43.2276ZM43.2276 127.187V122.384H62.5956V115.145H67.4414V134.409H62.5956V127.187H43.2276ZM43.2276 153.471V136.962H67.4414V153.471H62.5956V141.781H57.7493V149.692H52.9031V141.781H48.0738V153.471H43.2276ZM43.2276 176.11V170.954L59.1677 161.666H43.2276V156.847H67.4414V162.002L51.4847 171.29H67.4414V176.11H43.2276ZM43.2276 190.705V185.901H62.5956V178.663H67.4414V197.927H62.5956V190.705H43.2276Z" fill="#121213"/>
<path d="M56.7105 36.3061C55.8665 37.0282 54.9209 37.5825 53.8737 37.9688C52.8268 38.3551 51.7419 38.5482 50.619 38.5482C49.7578 38.5482 48.9263 38.4348 48.1242 38.2081C47.3306 37.9898 46.5833 37.6791 45.8826 37.276C45.1903 36.8645 44.5571 36.3733 43.9829 35.8023C43.4088 35.2312 42.915 34.6014 42.5012 33.9129C42.096 33.2159 41.7794 32.4727 41.5514 31.6833C41.3319 30.8856 41.2222 30.0584 41.2222 29.2019C41.2222 28.3454 41.3319 27.5182 41.5514 26.7205C41.7794 25.9227 42.096 25.1796 42.5012 24.491C42.915 23.794 43.4088 23.16 43.9829 22.5889C44.5571 22.018 45.1903 21.5309 45.8826 21.1278C46.5833 20.7163 47.3306 20.4014 48.1242 20.1831C48.9263 19.9564 49.7578 19.843 50.619 19.843C51.7419 19.843 52.8268 20.0361 53.8737 20.4224C54.9209 20.8003 55.8665 21.3545 56.7105 22.0851L54.7858 25.2341C54.2535 24.6631 53.6247 24.2264 52.8986 23.9241C52.1725 23.6134 51.4126 23.4581 50.619 23.4581C49.817 23.4581 49.0656 23.6092 48.3648 23.9115C47.664 24.2139 47.0519 24.6253 46.5285 25.146C46.005 25.6582 45.5913 26.267 45.2874 26.9724C44.9834 27.6694 44.8315 28.4125 44.8315 29.2019C44.8315 29.9913 44.9834 30.7344 45.2874 31.4314C45.5913 32.12 46.005 32.7246 46.5285 33.2453C47.0519 33.7659 47.664 34.1774 48.3648 34.4796C49.0656 34.782 49.817 34.9331 50.619 34.9331C51.4126 34.9331 52.1725 34.782 52.8986 34.4796C53.6247 34.1689 54.2535 33.7281 54.7858 33.1571L56.7105 36.3061ZM76.0866 29.2019C76.0866 30.0584 75.9731 30.8855 75.7451 31.6833C75.5252 32.4727 75.2129 33.2159 74.8076 33.9129C74.4024 34.6014 73.9128 35.2312 73.339 35.8023C72.7646 36.3733 72.1313 36.8645 71.4391 37.276C70.747 37.6791 69.9997 37.9898 69.1973 38.2081C68.3954 38.4348 67.5638 38.5482 66.7025 38.5482C65.8417 38.5482 65.0096 38.4348 64.2077 38.2081C63.414 37.9898 62.6672 37.6791 61.9664 37.276C61.2737 36.8645 60.6409 36.3733 60.0666 35.8023C59.4927 35.2312 58.9988 34.6014 58.5849 33.9129C58.1797 33.2159 57.863 32.4727 57.635 31.6833C57.4156 30.8856 57.3059 30.0584 57.3059 29.2019C57.3059 28.3454 57.4156 27.5182 57.635 26.7205C57.863 25.9227 58.1797 25.1796 58.5849 24.491C58.9988 23.8024 59.4927 23.1726 60.0666 22.6016C60.6409 22.0305 61.2737 21.5435 61.9664 21.1404C62.6672 20.7373 63.414 20.4266 64.2077 20.2083C65.0096 19.9816 65.8417 19.8682 66.7025 19.8682C67.5638 19.8682 68.3954 19.9816 69.1973 20.2083C69.9997 20.4266 70.747 20.7373 71.4391 21.1404C72.1313 21.5435 72.7646 22.0305 73.339 22.6016C73.9128 23.1726 74.4024 23.8024 74.8076 24.491C75.2129 25.1796 75.5252 25.9227 75.7451 26.7204C75.9731 27.5182 76.0866 28.3454 76.0866 29.2019ZM72.4777 29.2019C72.4777 28.4125 72.3258 27.6694 72.0216 26.9724C71.718 26.267 71.3041 25.6582 70.7805 25.146C70.2655 24.6253 69.6533 24.2139 68.9444 23.9115C68.2436 23.6092 67.4963 23.4581 66.7025 23.4581C65.9006 23.4581 65.149 23.6092 64.4482 23.9115C63.7479 24.2139 63.1357 24.6253 62.6121 25.146C62.0885 25.6582 61.6751 26.267 61.3709 26.9724C61.0673 27.6694 60.9149 28.4125 60.9149 29.2019C60.9149 29.9913 61.0673 30.7344 61.3709 31.4314C61.6751 32.12 62.0885 32.7246 62.6121 33.2453C63.1357 33.7659 63.7479 34.1773 64.4482 34.4796C65.149 34.782 65.9006 34.9331 66.7025 34.9331C67.4963 34.9331 68.2436 34.782 68.9444 34.4796C69.6533 34.1773 70.2655 33.7659 70.7805 33.2453C71.3041 32.7246 71.718 32.12 72.0216 31.4314C72.3258 30.7344 72.4777 29.9913 72.4777 29.2019ZM93.0064 38.1577H89.1186L82.1152 26.267V38.1577H78.4803V20.0949H82.3686L89.3715 31.9982V20.0949H93.0064V38.1577ZM104.012 38.1577H100.39V23.71H94.9316V20.0949H109.457V23.71H104.012V38.1577ZM123.831 38.1577H111.382V20.0949H123.831V23.71H115.017V27.3251H120.981V30.9402H115.017V34.5426H123.831V38.1577ZM140.903 38.1577H137.015L130.011 26.267V38.1577H126.377V20.0949H130.265L137.268 31.9982V20.0949H140.903V38.1577ZM151.908 38.1577H148.286V23.71H142.828V20.0949H157.354V23.71H151.908V38.1577Z" fill="#121213"/>
<path d="M14.7367 185.569C15.3115 186.233 15.7526 186.978 16.0601 187.802C16.3675 188.627 16.5213 189.481 16.5213 190.365C16.5213 191.044 16.431 191.698 16.2505 192.33C16.0768 192.955 15.8295 193.543 15.5087 194.095C15.1811 194.64 14.7901 195.138 14.3356 195.591C13.8811 196.043 13.3798 196.431 12.8317 196.757C12.277 197.076 11.6855 197.326 11.0571 197.505C10.4222 197.678 9.76379 197.764 9.08204 197.764C8.40029 197.764 7.74193 197.678 7.10692 197.505C6.47197 197.326 5.88045 197.076 5.33236 196.757C4.7776 196.431 4.27296 196.043 3.81846 195.591C3.36395 195.138 2.97628 194.64 2.65545 194.095C2.32794 193.543 2.0773 192.955 1.90351 192.33C1.72305 191.698 1.63281 191.044 1.63281 190.365C1.63281 189.481 1.78655 188.627 2.09401 187.802C2.39478 186.978 2.83592 186.233 3.41742 185.569L5.9239 187.084C5.46936 187.503 5.12182 187.998 4.8812 188.57C4.6339 189.142 4.51024 189.74 4.51024 190.365C4.51024 190.997 4.63056 191.588 4.87118 192.14C5.1118 192.692 5.43932 193.174 5.85371 193.586C6.26145 193.998 6.74603 194.324 7.30744 194.563C7.86221 194.803 8.45378 194.922 9.08204 194.922C9.71035 194.922 10.3019 194.803 10.8566 194.563C11.4047 194.324 11.8859 193.998 12.3004 193.586C12.7148 193.174 13.0423 192.692 13.2829 192.14C13.5235 191.588 13.6438 190.997 13.6438 190.365C13.6438 189.74 13.5235 189.142 13.2829 188.57C13.0356 187.998 12.6847 187.503 12.2302 187.084L14.7367 185.569ZM9.08204 170.312C9.76379 170.312 10.4222 170.401 11.0571 170.581C11.6854 170.754 12.277 171 12.8317 171.319C13.3798 171.638 13.8811 172.024 14.3356 172.476C14.7901 172.928 15.1811 173.426 15.5087 173.971C15.8295 174.516 16.0768 175.105 16.2505 175.736C16.431 176.368 16.5213 177.023 16.5213 177.701C16.5213 178.379 16.431 179.034 16.2505 179.666C16.0768 180.29 15.8295 180.879 15.5087 181.43C15.1811 181.975 14.7901 182.474 14.3356 182.926C13.8811 183.378 13.3798 183.767 12.8317 184.093C12.277 184.412 11.6854 184.662 11.0571 184.841C10.4222 185.014 9.76379 185.1 9.08204 185.1C8.40029 185.1 7.74193 185.014 7.10692 184.841C6.47197 184.662 5.88045 184.412 5.33236 184.093C4.78428 183.767 4.28299 183.378 3.82848 182.926C3.37397 182.474 2.98631 181.975 2.66548 181.43C2.34465 180.879 2.09734 180.29 1.92357 179.666C1.7431 179.034 1.65286 178.379 1.65286 177.701C1.65286 177.023 1.7431 176.368 1.92357 175.736C2.09734 175.105 2.34465 174.516 2.66548 173.971C2.98631 173.426 3.37397 172.928 3.82848 172.476C4.28299 172.024 4.78428 171.638 5.33236 171.319C5.88045 171 6.47197 170.754 7.10692 170.581C7.74193 170.401 8.40029 170.312 9.08204 170.312ZM9.08204 173.154C8.45378 173.154 7.86221 173.273 7.30744 173.512C6.74603 173.752 6.26145 174.078 5.85371 174.49C5.43932 174.895 5.1118 175.377 4.87118 175.936C4.63055 176.488 4.51024 177.076 4.51024 177.701C4.51024 178.333 4.63055 178.924 4.87118 179.476C5.1118 180.028 5.43932 180.51 5.85371 180.922C6.26145 181.334 6.74603 181.66 7.30744 181.899C7.86221 182.138 8.45378 182.258 9.08204 182.258C9.71035 182.258 10.3019 182.138 10.8566 181.899C11.4047 181.66 11.8859 181.334 12.3004 180.922C12.7148 180.51 13.0423 180.028 13.2829 179.476C13.5235 178.924 13.6438 178.333 13.6438 177.701C13.6438 177.076 13.5235 176.488 13.2829 175.936C13.0423 175.377 12.7148 174.895 12.3004 174.49C11.8859 174.078 11.4047 173.752 10.8566 173.512C10.3019 173.273 9.71035 173.154 9.08204 173.154ZM16.2104 156.989V160.051L6.74603 165.565H16.2104V168.427H1.83333V165.366L11.3078 159.851H1.83333V156.989H16.2104ZM16.2104 148.323V151.176H4.71076V155.474H1.83333V144.036H4.71076V148.323H16.2104ZM16.2104 132.718V142.52H1.83333V132.718H4.71076V139.658H7.58821V134.961H10.4656V139.658H13.333V132.718H16.2104ZM16.2104 119.276V122.337L6.74603 127.852H16.2104V130.713H1.83333V127.652L11.3078 122.138H1.83333V119.276H16.2104ZM16.2104 110.61V113.462H4.71076V117.76H1.83333V106.322H4.71076V110.61H16.2104Z" fill="#121213"/>
<defs>
<filter id="filter0_f" x="91.1494" y="110.473" width="79.4588" height="23.2499" filterUnits="userSpaceOnUse" color-interpolation-filters="sRGB">
<feFlood flood-opacity="0" result="BackgroundImageFix"/>
<feBlend mode="normal" in="SourceGraphic" in2="BackgroundImageFix" result="shape"/>
<feGaussianBlur stdDeviation="2.5" result="effect1_foregroundBlur"/>
</filter>
</defs>
</svg>
