<svg width="9" height="11" viewBox="0 0 9 11" fill="none" xmlns="http://www.w3.org/2000/svg">
<path d="M3.585 1.07518C3.93571 0.279776 5.06429 0.279777 5.415 1.07518L5.82965 2.01559C6.00551 2.41442 6.41944 2.6534 6.85276 2.60628L7.87451 2.49517C8.7387 2.4012 9.30299 3.37858 8.78951 4.08L8.18242 4.90931C7.92495 5.26102 7.92495 5.73898 8.18242 6.09069L8.78951 6.92C9.30299 7.62142 8.7387 8.5988 7.87451 8.50483L6.85276 8.39372C6.41944 8.3466 6.00551 8.58558 5.82965 8.98441L5.415 9.92482C5.06429 10.7202 3.93571 10.7202 3.585 9.92482L3.17035 8.98441C2.99449 8.58558 2.58056 8.3466 2.14724 8.39372L1.12549 8.50483C0.261297 8.5988 -0.30299 7.62142 0.210491 6.92L0.817585 6.09069C1.07505 5.73898 1.07505 5.26102 0.817585 4.90931L0.21049 4.08C-0.30299 3.37858 0.261298 2.4012 1.12549 2.49517L2.14724 2.60628C2.58056 2.6534 2.99449 2.41442 3.17035 2.01559L3.585 1.07518Z" fill="#F03737"/>
</svg>
