<svg width="50" height="50" viewBox="0 0 50 50" fill="none" xmlns="http://www.w3.org/2000/svg">
<path d="M22.208 28.33C22.208 27.1967 22.4573 26.2673 22.956 25.542C23.4547 24.794 24.18 23.978 25.132 23.094C25.7893 22.482 26.2767 21.972 26.594 21.564C26.9113 21.1333 27.07 20.68 27.07 20.204C27.07 19.5467 26.7867 19.0253 26.22 18.64C25.676 18.232 24.962 18.028 24.078 18.028C23.1713 18.028 22.344 18.2433 21.596 18.674C20.8707 19.1047 20.2813 19.7053 19.828 20.476L14.762 17.756C15.6913 16.1693 17.006 14.934 18.706 14.05C20.406 13.166 22.4573 12.724 24.86 12.724C27.5573 12.724 29.722 13.2907 31.354 14.424C33.0087 15.5347 33.836 17.0987 33.836 19.116C33.836 20.0453 33.6773 20.8727 33.36 21.598C33.0427 22.3007 32.6573 22.9013 32.204 23.4C31.7733 23.876 31.2067 24.42 30.504 25.032C29.7333 25.6893 29.1667 26.256 28.804 26.732C28.4413 27.1853 28.26 27.718 28.26 28.33H22.208ZM25.234 37.306C24.1233 37.306 23.2053 36.966 22.48 36.286C21.7547 35.5833 21.392 34.7333 21.392 33.736C21.392 32.716 21.7433 31.8773 22.446 31.22C23.1713 30.5627 24.1007 30.234 25.234 30.234C26.3673 30.234 27.2967 30.5627 28.022 31.22C28.7473 31.8773 29.11 32.716 29.11 33.736C29.11 34.7333 28.7473 35.5833 28.022 36.286C27.2967 36.966 26.3673 37.306 25.234 37.306Z" fill="currentColor"/>
<circle cx="25" cy="25" r="24" stroke="currentColor" stroke-width="2"/>
</svg>
