<svg width="59" height="59" viewBox="0 0 59 59" fill="none" xmlns="http://www.w3.org/2000/svg">
<path d="M58 29.5C58 45.2401 45.2401 58 29.5 58C13.7599 58 1 45.2401 1 29.5C1 13.7599 13.7599 1 29.5 1C45.2401 1 58 13.7599 58 29.5Z" fill="#0A0A0B" stroke="white" stroke-width="2"/>
<path d="M25.987 32.1585L25.5238 38.5801C26.1865 38.5801 26.4735 38.2995 26.8177 37.9626L29.9246 35.0358L36.3624 39.683C37.5431 40.3315 38.3749 39.99 38.6934 38.6123L42.9192 19.0946L42.9204 19.0935C43.2949 17.3731 42.2892 16.7003 41.1388 17.1224L16.2999 26.496C14.6047 27.1446 14.6304 28.0761 16.0117 28.4981L22.3621 30.445L37.1126 21.3474C37.8068 20.8943 38.4379 21.145 37.9188 21.5981L25.987 32.1585Z" fill="white"/>
</svg>
