<svg width="59" height="59" viewBox="0 0 59 59" fill="none" xmlns="http://www.w3.org/2000/svg">
<path d="M58 29.5C58 45.2401 45.2401 58 29.5 58C13.7599 58 1 45.2401 1 29.5C1 13.7599 13.7599 1 29.5 1C45.2401 1 58 13.7599 58 29.5Z" fill="#0A0A0B" stroke="white" stroke-width="2"/>
<path d="M40.3841 30.8951C39.8506 30.2301 40.0032 29.9343 40.3841 29.3399C40.391 29.3331 44.7952 23.3264 45.249 21.2893L45.2517 21.2879C45.4773 20.5456 45.2517 20 44.1613 20H40.5532C39.6347 20 39.2112 20.4682 38.9843 20.9921C38.9843 20.9921 37.1472 25.3322 34.5484 28.1456C33.7096 28.9585 33.3218 29.2191 32.8639 29.2191C32.6384 29.2191 32.2878 28.9585 32.2878 28.2161V21.2879C32.2878 20.3976 32.0307 20 31.2703 20H25.5968C25.0207 20 24.6783 20.4153 24.6783 20.8021C24.6783 21.6462 25.9777 21.8403 26.1125 24.2153V29.3684C26.1125 30.4975 25.9048 30.7051 25.4442 30.7051C24.2176 30.7051 21.2407 26.3474 19.4765 21.3599C19.1203 20.3922 18.7725 20.0014 17.847 20.0014H14.2375C13.2076 20.0014 13 20.4696 13 20.9934C13 21.919 14.2265 26.5211 18.7037 32.6011C21.6876 36.7512 25.8897 39 29.7123 39C32.01 39 32.2905 38.5006 32.2905 37.6415C32.2905 33.6759 32.0829 33.3014 33.2338 33.3014C33.7673 33.3014 34.6859 33.5619 36.8309 35.5637C39.2827 37.9374 39.6856 39 41.0578 39H44.666C45.6945 39 46.2157 38.5006 45.9159 37.5153C45.2297 35.4429 40.5931 31.1801 40.3841 30.8951Z" fill="white"/>
</svg>
