<svg width="42" height="42" viewBox="0 0 42 42" fill="none" xmlns="http://www.w3.org/2000/svg">
<circle cx="21" cy="21" r="20" fill="white" stroke="#0A0A0B" stroke-width="2"/>
<path d="M27.7527 22.1961C27.4293 21.7761 27.5218 21.5892 27.7527 21.2138C27.7568 21.2095 30.4261 17.4158 30.7011 16.1292L30.7028 16.1284C30.8394 15.6595 30.7028 15.3149 30.0419 15.3149H27.8552C27.2985 15.3149 27.0418 15.6107 26.9043 15.9415C26.9043 15.9415 25.7909 18.6827 24.2159 20.4595C23.7075 20.9729 23.4725 21.1375 23.195 21.1375C23.0583 21.1375 22.8458 20.9729 22.8458 20.5041V16.1284C22.8458 15.5661 22.69 15.3149 22.2291 15.3149H18.7907C18.4415 15.3149 18.234 15.5772 18.234 15.8215C18.234 16.3547 19.0215 16.4772 19.1032 17.9772V21.2318C19.1032 21.9449 18.9774 22.0761 18.6982 22.0761C17.9548 22.0761 16.1506 19.3238 15.0814 16.1738C14.8655 15.5627 14.6547 15.3158 14.0939 15.3158H11.9063C11.2821 15.3158 11.1562 15.6115 11.1562 15.9424C11.1562 16.5269 11.8996 19.4335 14.613 23.2735C16.4214 25.8947 18.9682 27.3149 21.2849 27.3149C22.6775 27.3149 22.8475 26.9995 22.8475 26.4569C22.8475 23.9524 22.7217 23.7158 23.4192 23.7158C23.7425 23.7158 24.2992 23.8804 25.5992 25.1447C27.0851 26.6438 27.3293 27.3149 28.161 27.3149H30.3477C30.9711 27.3149 31.2869 26.9995 31.1053 26.3772C30.6894 25.0684 27.8793 22.3761 27.7527 22.1961Z" fill="#0A0A0B"/>
</svg>
